<svg xmlns="http://www.w3.org/2000/svg" aria-hidden="true" style="position:absolute;width:0;height:0;overflow:hidden">
  <defs>
    <symbol id="icon-coin-dollar" viewBox="0 0 32 32">
      <path d="M15 2C6.716 2 0 8.716 0 17s6.716 15 15 15c8.284 0 15-6.716 15-15S23.284 2 15 2zm0 27C8.373 29 3 23.627 3 17S8.373 5 15 5s12 5.373 12 12-5.373 12-12 12zm1-13v-4h4v-2h-4V8h-2v2h-4v8h4v4h-4v2h4v2h2v-2h4v-8h-4zm-2 0h-2v-4h2v4zm4 6h-2v-4h2v4z"/>
    </symbol>
    <symbol id="icon-map2" viewBox="0 0 32 32">
      <path d="M21 6 11 2 0 6v24l11-4 10 4 11-4V2L21 6zm-9-1.446 8 3.2v19.692l-8-3.2V4.554zM2 7.401l8-2.909v19.744l-8 2.909V7.401zm28 17.198-8 2.909V7.764l8-2.909v19.744z"/>
    </symbol>
  </defs>
</svg>
