<svg xmlns="http://www.w3.org/2000/svg" aria-hidden="true" style="position:absolute;width:0;height:0;overflow:hidden"><defs><symbol id="icon-home" viewBox="0 0 32 32"><path d="M32 18.451 16 6.031 0 18.451v-5.064L16 .967l16 12.42zM28 18v12h-8v-8h-8v8H4V18l12-9z"/></symbol><symbol id="icon-bullhorn" viewBox="0 0 32 32"><path d="M32 13.414c0-6.279-1.837-11.373-4.109-11.413L27.918 2h-2.592s-6.088 4.573-14.851 6.367c-.268 1.415-.438 3.102-.438 5.047s.171 3.631.438 5.047c8.763 1.794 14.851 6.367 14.851 6.367h2.592l-.027-.001C30.163 24.787 32 19.693 32 13.414zm-4.974 9.688c-.293 0-.61-.304-.773-.486-.395-.439-.775-1.124-1.1-1.979-.727-1.913-1.127-4.478-1.127-7.223s.4-5.309 1.127-7.223c.325-.855.705-1.54 1.1-1.979.163-.182.48-.486.773-.486s.61.304.773.486c.395.439.775 1.124 1.1 1.979.727 1.913 1.127 4.479 1.127 7.223s-.4 5.309-1.127 7.223c-.325.855-.705 1.54-1.1 1.979-.163.181-.48.486-.773.486zM7.869 13.414c0-1.623.119-3.201.345-4.659-1.48.205-2.779.323-4.386.323H1.732l-1.733 2.959v2.755l1.733 2.959h2.096c1.606 0 2.905.118 4.386.323a30.65 30.65 0 0 1-.345-4.659zm3.636 6.654-4-.766 2.558 10.048a.834.834 0 0 0 1.146.583l3.705-1.483a.853.853 0 0 0 .444-1.221l-3.853-7.161zm15.521-2.92c-.113 0-.235-.117-.298-.187-.152-.169-.299-.433-.424-.763-.28-.738-.434-1.726-.434-2.784s.154-2.046.434-2.784c.125-.33.272-.593.424-.763.063-.07.185-.187.298-.187s.235.117.298.187c.152.169.299.433.424.763.28.737.434 1.726.434 2.784s-.154 2.046-.434 2.784c-.125.33-.272.593-.424.763-.063.07-.185.187-.298.187z"/></symbol><symbol id="icon-address-book" viewBox="0 0 32 32"><path d="M6 0v32h24V0H6zm12 8.01a3.99 3.99 0 1 1 0 7.98 3.99 3.99 0 0 1 0-7.98zM24 24H12v-2a4 4 0 0 1 4-4h4a4 4 0 0 1 4 4v2zM2 2h3v6H2V2zM2 10h3v6H2v-6zM2 18h3v6H2v-6zM2 26h3v6H2v-6z"/></symbol><symbol id="icon-bubbles4" viewBox="0 0 36 32"><path d="M15 4c-1.583 0-3.112.248-4.543.738-1.341.459-2.535 1.107-3.547 1.926C5.034 8.182 4 10.127 4 12.138c0 1.125.315 2.217.935 3.247.646 1.073 1.622 2.056 2.821 2.842a3.998 3.998 0 0 1 1.761 2.748c.028.187.051.375.068.564.085-.079.169-.16.254-.244a4 4 0 0 1 3.326-1.134c.605.077 1.223.116 1.836.116 1.583 0 3.112-.248 4.543-.738 1.341-.459 2.535-1.107 3.547-1.926 1.876-1.518 2.91-3.463 2.91-5.474s-1.033-3.956-2.91-5.474c-1.012-.819-2.206-1.467-3.547-1.926a13.992 13.992 0 0 0-4.543-.738zm0-4c8.284 0 15 5.435 15 12.139s-6.716 12.139-15 12.139c-.796 0-1.576-.051-2.339-.147C9.439 27.34 5.718 27.916 2 28v-.785c2.008-.98 3.625-2.765 3.625-4.804 0-.285-.022-.564-.063-.837C2.17 19.349 0 15.949 0 12.14 0 5.436 6.716.001 15 .001zm16.125 27.209c0 1.748 1.135 3.278 2.875 4.118V32c-3.223-.072-6.181-.566-8.973-3.316-.661.083-1.337.126-2.027.126-2.983 0-5.732-.805-7.925-2.157 4.521-.016 8.789-1.464 12.026-4.084 1.631-1.32 2.919-2.87 3.825-4.605.961-1.84 1.449-3.799 1.449-5.825 0-.326-.014-.651-.039-.974C34.604 13.038 36 15.591 36 18.405c0 3.265-1.88 6.179-4.82 8.086a4.722 4.722 0 0 0-.055.718z"/></symbol><symbol id="icon-earth" viewBox="0 0 32 32"><path d="M16 0C7.163 0 0 7.163 0 16s7.163 16 16 16 16-7.163 16-16S24.837 0 16 0zm0 30c-1.967 0-3.84-.407-5.538-1.139l7.286-8.197a.998.998 0 0 0 .253-.664v-3a1 1 0 0 0-1-1c-3.531 0-7.256-3.671-7.293-3.707A1 1 0 0 0 9.001 12h-4a1 1 0 0 0-1 1v6c0 .379.214.725.553.894l3.447 1.724v5.871c-3.627-2.53-6-6.732-6-11.489 0-2.147.484-4.181 1.348-6h3.652c.265 0 .52-.105.707-.293l4-4A1 1 0 0 0 12.001 5V2.581a14.013 14.013 0 0 1 4-.581c2.2 0 4.281.508 6.134 1.412A5.961 5.961 0 0 0 20.002 8c0 1.603.624 3.109 1.757 4.243a5.985 5.985 0 0 0 4.536 1.751c.432 1.619 1.211 5.833-.263 11.635a.936.936 0 0 0-.026.163A13.956 13.956 0 0 1 16.002 30z"/></symbol>
  <symbol id="icon-coin-dollar" viewBox="0 0 32 32">
      <path d="M15 2C6.716 2 0 8.716 0 17s6.716 15 15 15c8.284 0 15-6.716 15-15S23.284 2 15 2zm0 27C8.373 29 3 23.627 3 17S8.373 5 15 5s12 5.373 12 12-5.373 12-12 12zm1-13v-4h4v-2h-4V8h-2v2h-4v8h4v4h-4v2h4v2h2v-2h4v-8h-4zm-2 0h-2v-4h2v4zm4 6h-2v-4h2v4z"/>
    </symbol>
    <symbol id="icon-map2" viewBox="0 0 32 32">
      <path d="M21 6 11 2 0 6v24l11-4 10 4 11-4V2L21 6zm-9-1.446 8 3.2v19.692l-8-3.2V4.554zM2 7.401l8-2.909v19.744l-8 2.909V7.401zm28 17.198-8 2.909V7.764l8-2.909v19.744z"/>
    </symbol>
</defs></svg>